<svg width="16" height="16" viewBox="0 0 16 16" fill="none" xmlns="http://www.w3.org/2000/svg">
<path fill-rule="evenodd" clip-rule="evenodd" d="M8.52511 1.34287L10.2314 4.96656C10.3169 5.14934 10.4819 5.2769 10.6734 5.30645L14.4934 5.88901C14.6481 5.91079 14.7874 5.99635 14.8824 6.12701C15.0607 6.37201 15.0334 6.71891 14.8198 6.92969L12.0511 9.75615C11.9104 9.89615 11.8478 10.1015 11.8846 10.3014L12.5477 14.2898C12.5941 14.6204 12.3804 14.93 12.0673 14.9836C11.9377 15.0046 11.8051 14.9829 11.6872 14.9214L8.28494 13.0384C8.11401 12.9404 7.9092 12.9404 7.73828 13.0384L4.31098 14.9315C4.02439 15.0855 3.67371 14.9712 3.51752 14.6748C3.45784 14.5551 3.43722 14.419 3.45784 14.286L4.12091 10.2975C4.15406 10.0984 4.09144 9.89382 3.9544 9.75304L1.17102 6.92735C0.944103 6.68935 0.94263 6.30201 1.16881 6.06246C1.16954 6.06168 1.17028 6.06012 1.17102 6.05935C1.26458 5.9699 1.37951 5.91001 1.50402 5.88668L5.32473 5.30412C5.51555 5.27223 5.67984 5.14623 5.76677 4.96345L7.47158 1.34287C7.5401 1.19587 7.66166 1.08309 7.809 1.03176C7.95709 0.979646 8.11917 0.99209 8.25841 1.06598C8.37261 1.12587 8.46617 1.22309 8.52511 1.34287Z" fill="#F8D456"/>
</svg>
