<svg width="18" height="18" viewBox="0 0 18 18" fill="none" xmlns="http://www.w3.org/2000/svg">
<circle cx="9" cy="9" r="9" fill="#4D66EC"/>
<path d="M6.13125 13.994L6.13725 13.034L9.97125 9.584C10.2913 9.296 10.5053 9.024 10.6133 8.768C10.7253 8.508 10.7813 8.242 10.7813 7.97C10.7813 7.638 10.7053 7.338 10.5533 7.07C10.4013 6.802 10.1933 6.59 9.92925 6.434C9.66925 6.278 9.37325 6.2 9.04125 6.2C8.69725 6.2 8.39125 6.282 8.12325 6.446C7.85525 6.606 7.64325 6.82 7.48725 7.088C7.33525 7.356 7.26125 7.648 7.26525 7.964H6.17325C6.17325 7.42 6.29925 6.94 6.55125 6.524C6.80325 6.104 7.14525 5.776 7.57725 5.54C8.01325 5.3 8.50725 5.18 9.05925 5.18C9.59525 5.18 10.0753 5.304 10.4993 5.552C10.9233 5.796 11.2573 6.13 11.5013 6.554C11.7493 6.974 11.8733 7.45 11.8733 7.982C11.8733 8.358 11.8253 8.684 11.7292 8.96C11.6372 9.236 11.4933 9.492 11.2973 9.728C11.1013 9.96 10.8553 10.208 10.5593 10.472L7.37325 13.334L7.23525 12.974H11.8733V13.994H6.13125Z" fill="#FCFCFC"/>
</svg>
