<svg width="20" height="20" viewBox="0 0 20 20" fill="none" xmlns="http://www.w3.org/2000/svg">
<path fill-rule="evenodd" clip-rule="evenodd" d="M9.81748 17.3781C8.00864 16.2649 6.3259 14.9547 4.79938 13.471C3.72617 12.4025 2.90915 11.0998 2.41089 9.66282C1.51426 6.87525 2.56158 3.68402 5.49258 2.7396C7.03299 2.2437 8.71535 2.52713 10.0134 3.50123C11.3119 2.52831 12.9937 2.24498 14.5342 2.7396C17.4652 3.68402 18.52 6.87525 17.6234 9.66282C17.1252 11.0998 16.3081 12.4025 15.2349 13.471C13.7084 14.9547 12.0257 16.2649 10.2168 17.3781L10.0209 17.5L9.81748 17.3781Z" stroke="#DE012C" stroke-linecap="round" stroke-linejoin="round"/>
<path d="M13.1327 5.87753C14.0204 6.16112 14.6512 6.95812 14.73 7.89585" stroke="#DE012C" stroke-linecap="round" stroke-linejoin="round"/>
</svg>
