<svg width="15" height="15" viewBox="0 0 15 15" fill="none" xmlns="http://www.w3.org/2000/svg">
<path fill-rule="evenodd" clip-rule="evenodd" d="M7.9876 1.31838L9.57201 4.68324C9.65136 4.85296 9.80461 4.9714 9.98247 4.99885L13.5296 5.5398C13.6733 5.56002 13.8026 5.63946 13.8908 5.7608C14.0564 5.9883 14.031 6.31041 13.8327 6.50614L11.2618 9.13071C11.1311 9.26071 11.0729 9.45138 11.1072 9.63699L11.7229 13.3406C11.766 13.6475 11.5676 13.935 11.2768 13.9848C11.1564 14.0043 11.0333 13.9841 10.9238 13.927L7.76458 12.1785C7.60587 12.0875 7.41569 12.0875 7.25697 12.1785L4.07449 13.9364C3.80837 14.0794 3.48273 13.9732 3.3377 13.6981C3.28228 13.5869 3.26313 13.4605 3.28228 13.337L3.89798 9.63338C3.92877 9.44849 3.87062 9.25854 3.74338 9.12782L1.1588 6.50397C0.948096 6.28297 0.946727 5.9233 1.15675 5.70085C1.15743 5.70013 1.15812 5.69869 1.1588 5.69796C1.24568 5.61491 1.35241 5.5593 1.46802 5.53763L5.01582 4.99668C5.19301 4.96707 5.34557 4.85007 5.42629 4.68035L7.00933 1.31838C7.07295 1.18188 7.18583 1.07716 7.32265 1.02949C7.46015 0.981099 7.61066 0.992655 7.73996 1.06127C7.84599 1.11688 7.93288 1.20716 7.9876 1.31838Z" fill="#F8D456"/>
</svg>
